<?xml version="1.0" encoding="utf-8"?>
<!-- Generator: Adobe Illustrator 16.0.0, SVG Export Plug-In . SVG Version: 6.00 Build 0)  -->
<!DOCTYPE svg PUBLIC "-//W3C//DTD SVG 1.1//EN" "http://www.w3.org/Graphics/SVG/1.1/DTD/svg11.dtd">
<svg version="1.1" id="Layer_1" xmlns="http://www.w3.org/2000/svg" xmlns:xlink="http://www.w3.org/1999/xlink" x="0px" y="0px"
	 width="40.963px" height="36px" viewBox="0 0 40.963 36" enable-background="new 0 0 40.963 36" xml:space="preserve">
<g>
	<rect x="25.935" y="10.08" fill-rule="evenodd" clip-rule="evenodd" fill="#010101" width="8.167" height="2.015"/>
	<path fill-rule="evenodd" clip-rule="evenodd" fill="#010101" d="M37.115,19.762c-0.166-1.107-0.554-2.106-1.164-2.992
		c-0.651-0.957-1.483-1.67-2.494-2.14c-0.997-0.458-2.14-0.687-3.428-0.687c-2.106,0-3.83,0.673-5.175,2.015
		c-1.329,1.345-1.994,3.269-1.994,5.777c0,0.624,0.042,1.204,0.125,1.745c0.263,1.801,0.963,3.159,2.099,4.073
		c1.469,1.192,3.166,1.787,5.09,1.787c2.341,0,4.163-0.706,5.465-2.119c0.845-0.9,1.31-1.78,1.392-2.639h-3.866
		c-0.207,0.43-0.471,0.77-0.789,1.017c-0.526,0.444-1.219,0.666-2.078,0.666c-0.831,0-1.538-0.181-2.119-0.54
		c-0.749-0.472-1.22-1.219-1.414-2.246c-0.042-0.248-0.069-0.518-0.083-0.811h10.535C37.246,21.383,37.212,20.414,37.115,19.762z
		 M26.766,20.156c0.139-0.968,0.478-1.716,1.019-2.244c0.54-0.553,1.288-0.83,2.244-0.83c0.914,0,1.676,0.262,2.285,0.789
		c0.596,0.513,0.928,1.276,0.998,2.285H26.766z"/>
	<path fill-rule="evenodd" clip-rule="evenodd" fill="#010101" d="M18.185,18.6c0.679-0.361,1.185-0.742,1.517-1.144
		c0.637-0.748,0.956-1.745,0.956-2.992c0-0.568-0.069-1.095-0.208-1.581c-0.167-0.552-0.416-1.051-0.748-1.495
		c-0.998-1.384-2.744-2.112-5.237-2.182H4.699v20.239h9.123c1.024,0,1.981-0.082,2.867-0.249c0.901-0.195,1.656-0.532,2.266-1.018
		c0.567-0.417,1.045-0.948,1.433-1.601c0.583-0.914,0.887-1.945,0.915-3.097c0-0.041,0-0.089,0-0.145
		c0-1.165-0.264-2.147-0.789-2.951C19.985,19.568,19.21,18.972,18.185,18.6z M9.374,12.74h3.762c0.65,0,1.219,0.049,1.704,0.144
		c0.249,0.058,0.471,0.119,0.664,0.188c0.749,0.29,1.123,0.908,1.123,1.848c0,0.845-0.278,1.441-0.831,1.788
		c-0.541,0.333-1.247,0.499-2.119,0.499H9.374V12.74z M17,23.481c-0.083,1.026-0.52,1.732-1.31,2.12
		c-0.47,0.235-1.149,0.355-2.035,0.355H9.374v-5.405h4.322c0.9,0.029,1.579,0.146,2.036,0.353c0.859,0.402,1.288,1.124,1.288,2.163
		C17.021,23.22,17.014,23.358,17,23.481z"/>
</g>
</svg>
