<?xml version="1.0" encoding="utf-8"?>
<!-- Generator: Adobe Illustrator 16.0.0, SVG Export Plug-In . SVG Version: 6.00 Build 0)  -->
<!DOCTYPE svg PUBLIC "-//W3C//DTD SVG 1.1//EN" "http://www.w3.org/Graphics/SVG/1.1/DTD/svg11.dtd">
<svg version="1.1" id="Layer_1" xmlns="http://www.w3.org/2000/svg" xmlns:xlink="http://www.w3.org/1999/xlink" x="0px" y="0px"
	 width="31.453px" height="36px" viewBox="0 0 31.453 36" enable-background="new 0 0 31.453 36" xml:space="preserve">
<path fill="#010101" d="M25.842,17.935c0.104-0.039,0.335-0.063,0.695-0.077c0.154-0.013,0.309-0.02,0.463-0.02V17.78
	c-0.515-0.025-0.945-0.052-1.293-0.077c0.437-1.506,0.515-3.037,0.231-4.595c-0.282-1.597-0.855-2.768-1.718-3.515
	c0.193-0.565,0.25-1.241,0.174-2.026c-0.078-0.683-0.238-1.307-0.483-1.872c-0.888,0.038-1.692,0.219-2.413,0.54
	c-0.116,0.052-0.438,0.251-0.965,0.598c-0.425,0.271-0.753,0.419-0.985,0.444c-0.245,0.026-0.625-0.025-1.139-0.154
	c-0.605-0.141-1.036-0.219-1.294-0.231C15.288,6.802,13.583,6.982,12,7.433c-0.837-0.566-1.461-0.939-1.873-1.12
	c-0.759-0.373-1.57-0.579-2.432-0.617c-0.309,0.501-0.496,1.171-0.56,2.007c-0.051,0.863,0.045,1.597,0.29,2.202
	C6.6,10.599,6.079,11.782,5.86,13.456c-0.18,1.557-0.064,2.998,0.348,4.324c-0.361,0-0.708,0-1.043,0v0.039c0.257,0,0.406,0,0.444,0
	c0.58,0.052,0.908,0.282,0.985,0.695c-0.502,0.012-0.978,0.038-1.429,0.076v0.116c0.489-0.038,0.985-0.071,1.487-0.097
	c0.553,1.056,1.435,1.879,2.645,2.471c1.017,0.516,2.342,0.889,3.977,1.12c-0.604,0.425-1.003,1.075-1.197,1.95
	c-0.412,0.115-0.702,0.199-0.869,0.251c-0.322,0.09-0.631,0.128-0.927,0.116c-0.734-0.026-1.57-0.592-2.51-1.699
	c-0.811-0.953-1.68-1.339-2.606-1.159v0.252c0.103,0.192,0.271,0.367,0.502,0.521c0.425,0.283,0.682,0.478,0.772,0.579
	c0.154,0.206,0.309,0.508,0.463,0.908c0.18,0.463,0.328,0.785,0.444,0.966c0.399,0.682,1.004,1.145,1.815,1.39
	c0.811,0.231,1.756,0.244,2.838,0.038c-0.025,0.283-0.013,0.913,0.039,1.892c0.039,0.708-0.026,1.229-0.193,1.564
	c-0.09,0.192-0.29,0.379-0.599,0.56c-0.296,0.181-0.47,0.393-0.521,0.637c0.514,0.206,1.055,0.226,1.622,0.059
	c0.579-0.181,0.965-0.496,1.158-0.946c0.219-0.477,0.264-1.493,0.135-3.051c-0.103-1.363,0.058-2.2,0.482-2.509
	c-0.077,0.527-0.064,1.557,0.039,3.088c0.077,1.301,0.013,2.239-0.193,2.818c-0.039,0.116-0.181,0.342-0.425,0.676
	c-0.167,0.232-0.232,0.464-0.193,0.695h0.658c0.932-0.107,1.514-0.764,1.736-1.988c0.064-0.283,0.103-1.743,0.115-4.382
	c-0.038-0.296-0.057-0.521-0.057-0.677c0-0.282,0.109-0.431,0.328-0.442c0.206,0.964,0.284,2.618,0.232,4.961
	c0.144,1.579,0.764,2.418,1.856,2.528h0.577c0.064-0.219,0.006-0.45-0.174-0.695c-0.258-0.359-0.405-0.61-0.444-0.752
	c-0.18-0.618-0.245-1.564-0.193-2.838c0.09-1.775,0.129-2.774,0.116-2.992c0.399,0.425,0.56,1.235,0.482,2.433
	c-0.103,1.518-0.109,2.457-0.019,2.818c0.116,0.502,0.528,0.906,1.236,1.216c0.72,0.309,1.261,0.251,1.622-0.174
	c-0.09-0.141-0.271-0.309-0.541-0.502c-0.245-0.167-0.418-0.348-0.521-0.54c-0.219-0.438-0.302-1.274-0.25-2.51
	c0.077-1.545,0.09-2.529,0.038-2.953c-0.064-0.477-0.231-0.896-0.502-1.256c-0.386-0.553-0.598-0.862-0.637-0.927
	c3.244-0.245,5.406-1.416,6.487-3.514c0.476,0.013,0.978,0.045,1.505,0.097v-0.116c-0.463-0.052-0.965-0.096-1.505-0.135
	C25.481,18.186,25.598,18.012,25.842,17.935z"/>
</svg>
