<?xml version="1.0" encoding="utf-8"?>
<!-- Generator: Adobe Illustrator 16.0.0, SVG Export Plug-In . SVG Version: 6.00 Build 0)  -->
<!DOCTYPE svg PUBLIC "-//W3C//DTD SVG 1.1//EN" "http://www.w3.org/Graphics/SVG/1.1/DTD/svg11.dtd">
<svg version="1.1" id="Layer_1" xmlns="http://www.w3.org/2000/svg" xmlns:xlink="http://www.w3.org/1999/xlink" x="0px" y="0px"
	 width="33px" height="36px" viewBox="0 0 33 36" enable-background="new 0 0 33 36" xml:space="preserve">
<g>
	<path fill-rule="evenodd" clip-rule="evenodd" fill="#010101" d="M8.69,6.837c0.175,0.072,0.349,0.16,0.523,0.261
		c0.16,0.117,0.312,0.247,0.458,0.393c0.145,0.145,0.276,0.298,0.392,0.458c0.102,0.145,0.189,0.298,0.262,0.458
		c0.043,0.116,0.08,0.24,0.109,0.371c0.029,0.131,0.058,0.269,0.087,0.414c0.015,0.145,0.022,0.291,0.022,0.436
		c0,0.131-0.007,0.262-0.022,0.393c-0.029,0.131-0.058,0.261-0.087,0.392c-0.029,0.117-0.065,0.232-0.109,0.349
		c-0.058,0.117-0.116,0.232-0.175,0.349c-0.072,0.116-0.145,0.225-0.218,0.327c-0.087,0.102-0.174,0.203-0.261,0.305
		c-0.102,0.087-0.204,0.174-0.306,0.261c-0.101,0.088-0.21,0.167-0.327,0.24C8.923,12.3,8.807,12.351,8.69,12.394
		c-0.116,0.044-0.232,0.088-0.348,0.131c-0.262,0.058-0.516,0.087-0.763,0.087H7.558c-0.146,0-0.283-0.008-0.415-0.021
		c-0.145-0.015-0.283-0.037-0.414-0.065c-0.13-0.029-0.261-0.073-0.392-0.131c-0.349-0.131-0.654-0.348-0.916-0.653
		c-0.218-0.203-0.385-0.414-0.501-0.632c-0.073-0.117-0.131-0.232-0.174-0.349c-0.043-0.116-0.08-0.232-0.109-0.349
		c-0.043-0.131-0.065-0.261-0.065-0.392C4.542,9.888,4.535,9.757,4.55,9.626c-0.015-0.218,0-0.421,0.043-0.61
		c0.029-0.203,0.08-0.393,0.152-0.566c0.073-0.175,0.167-0.342,0.283-0.501c0.102-0.16,0.233-0.312,0.392-0.458
		c0.189-0.204,0.393-0.363,0.61-0.48c0.233-0.13,0.479-0.232,0.741-0.305C6.889,6.677,7.02,6.655,7.165,6.641
		c0.131-0.029,0.261-0.037,0.393-0.022c0.203-0.015,0.399,0,0.588,0.043C8.335,6.691,8.516,6.75,8.69,6.837z"/>
	<polygon fill-rule="evenodd" clip-rule="evenodd" fill="#010101" points="10.5,14.377 10.5,28.979 10.478,29 4.986,29 
		4.986,14.377 	"/>
	<path fill-rule="evenodd" clip-rule="evenodd" fill="#010101" d="M19.042,15.118c0.248-0.131,0.509-0.247,0.785-0.349
		c0.262-0.102,0.53-0.182,0.807-0.24c0.276-0.072,0.559-0.123,0.85-0.152c0.291-0.044,0.588-0.059,0.894-0.044h0.501l0.959,0.131
		c0.159,0.016,0.319,0.044,0.479,0.087c0.146,0.044,0.291,0.087,0.436,0.131c0.131,0.044,0.269,0.102,0.415,0.175h0.043
		c0.872,0.392,1.533,0.872,1.983,1.438h0.065c0.116,0.146,0.225,0.297,0.327,0.458c0.087,0.16,0.167,0.327,0.24,0.501
		c0.073,0.16,0.145,0.327,0.218,0.501c0.029,0.073,0.058,0.152,0.087,0.24c0.015,0.102,0.036,0.204,0.065,0.305v0.043
		c0.043,0.16,0.08,0.349,0.109,0.567c0.029,0.203,0.058,0.428,0.087,0.675c0.015,0.233,0.029,0.495,0.044,0.785
		c0.014,0.276,0.021,0.573,0.021,0.893v7.715L28.435,29h-5.492v-6.734c-0.015-1.613-0.102-2.637-0.262-3.072
		c-0.145-0.392-0.363-0.697-0.654-0.916c-0.16-0.116-0.334-0.196-0.522-0.239c-0.087-0.015-0.167-0.029-0.24-0.044
		c-0.116-0.015-0.233-0.021-0.349-0.021c-0.131,0-0.248,0.007-0.349,0.021c-0.087,0.015-0.175,0.029-0.262,0.044
		c-0.204,0.028-0.399,0.087-0.588,0.174c-0.189,0.073-0.356,0.167-0.501,0.284c-0.146,0.086-0.276,0.196-0.393,0.327
		c-0.117,0.13-0.218,0.269-0.305,0.414c-0.087,0.146-0.16,0.312-0.218,0.501l-0.043,0.021L18.17,20.13l-0.218,2.266v6.582L17.931,29
		h-5.492V14.377h5.208v1.678c0.218-0.189,0.443-0.363,0.675-0.523C18.556,15.373,18.795,15.234,19.042,15.118z"/>
</g>
</svg>
