<?xml version="1.0" encoding="utf-8"?>
<!-- Generator: Adobe Illustrator 16.0.0, SVG Export Plug-In . SVG Version: 6.00 Build 0)  -->
<!DOCTYPE svg PUBLIC "-//W3C//DTD SVG 1.1//EN" "http://www.w3.org/Graphics/SVG/1.1/DTD/svg11.dtd">
<svg version="1.1" id="Layer_1" xmlns="http://www.w3.org/2000/svg" xmlns:xlink="http://www.w3.org/1999/xlink" x="0px" y="0px"
	 width="36px" height="36px" viewBox="0 0 36 36" enable-background="new 0 0 36 36" xml:space="preserve">
<path fill-rule="evenodd" clip-rule="evenodd" fill="#010101" d="M33,17.403c-0.531,0.605-1.185,1.007-1.963,1.204
	c-0.346,0.049-0.686,0.099-1.019,0.148c-0.197,0-0.389,0.006-0.574,0.018c-0.444,1.864-1.321,3.482-2.629,4.853
	c-0.692,0.729-1.445,1.376-2.259,1.944c-1.63,1.173-3.42,2-5.371,2.481c-2.037,0.519-4.105,0.648-6.204,0.389
	c-2.889-0.395-5.451-1.53-7.685-3.407C4.419,24.305,3.654,23.49,3,22.589c1.099,1.062,2.407,1.729,3.926,2
	c0.791,0.136,1.58,0.167,2.371,0.093c1.222-0.099,2.321-0.47,3.296-1.111c0.556-0.37,1.074-0.803,1.556-1.296
	c-0.605,0.16-1.167,0.043-1.685-0.353c-0.197-0.173-0.327-0.401-0.389-0.685c-0.099-0.481,0.055-0.853,0.463-1.111
	c0.222-0.136,0.444-0.266,0.667-0.389c-1.05,0.136-1.969-0.124-2.759-0.778c-0.235-0.186-0.45-0.395-0.648-0.63
	c-0.111-0.136-0.21-0.271-0.296-0.407c0.395-0.407,0.858-0.647,1.389-0.722c0.222-0.037,0.451-0.068,0.685-0.093
	c-0.889-0.173-1.691-0.574-2.407-1.204c-0.395-0.346-0.667-0.765-0.814-1.259c-0.05-0.186-0.099-0.364-0.148-0.537l1.852-0.204
	C9.191,13.496,8.5,12.885,7.981,12.07c-0.012-0.024-0.024-0.05-0.037-0.074c-0.271-0.444-0.42-0.907-0.444-1.389
	c-0.013-0.161-0.019-0.321-0.019-0.481c2.654,1.013,5.21,2.166,7.667,3.463c0.371,0.185,0.723,0.407,1.056,0.666
	c0.42,0.358,0.84,0.723,1.259,1.093c0.568-1.419,1.235-2.777,2-4.074c0.371-0.654,0.809-1.259,1.315-1.814
	c0.42-0.481,0.876-0.932,1.371-1.352l-0.445,0.87c0.667-0.556,1.451-0.92,2.352-1.093c-0.012,0.186-0.086,0.334-0.222,0.444
	c-0.05,0.05-0.099,0.099-0.148,0.148c-0.062,0.05-0.124,0.093-0.185,0.13c-0.074,0.049-0.155,0.086-0.241,0.111
	c-0.185,0.111-0.377,0.21-0.574,0.296C23.154,8.879,23.592,8.737,24,8.589c0.173-0.087,0.358-0.148,0.556-0.186
	c0.074-0.012,0.154-0.019,0.241-0.019c0.049-0.024,0.105-0.036,0.167-0.036c0.099,0.012,0.197,0.03,0.296,0.055
	c0.037,0.037,0.08,0.08,0.13,0.13c0.062,0.21-0.05,0.389-0.333,0.537c-0.259,0.123-0.524,0.234-0.796,0.333
	c-0.198,0.05-0.395,0.105-0.593,0.167c-0.284,0.087-0.568,0.179-0.852,0.277c1.296-0.086,2.475,0.217,3.537,0.908
	c0.481,0.32,0.914,0.703,1.296,1.147c0.729,0.84,1.235,1.815,1.519,2.927c0.062,0.222,0.117,0.45,0.167,0.685
	c0.803,0.21,1.624,0.216,2.463,0.019c0.259-0.087,0.518-0.186,0.777-0.296c0.111-0.037,0.216-0.081,0.315-0.13
	c-0.346,0.716-0.889,1.223-1.63,1.519c-0.333,0.136-0.679,0.234-1.037,0.296c-0.198,0.074-0.396,0.124-0.593,0.148
	c0.667,0.26,1.364,0.395,2.093,0.407c0.296,0,0.592,0,0.889,0C32.734,17.453,32.864,17.429,33,17.403"/>
</svg>
