<?xml version="1.0" encoding="utf-8"?>
<!-- Generator: Adobe Illustrator 16.0.0, SVG Export Plug-In . SVG Version: 6.00 Build 0)  -->
<!DOCTYPE svg PUBLIC "-//W3C//DTD SVG 1.1//EN" "http://www.w3.org/Graphics/SVG/1.1/DTD/svg11.dtd">
<svg version="1.1" id="Layer_1" xmlns="http://www.w3.org/2000/svg" xmlns:xlink="http://www.w3.org/1999/xlink" x="0px" y="0px"
	 width="30.833px" height="36px" viewBox="0 0 30.833 36" enable-background="new 0 0 30.833 36" xml:space="preserve">
<path fill-rule="evenodd" clip-rule="evenodd" fill="#010101" d="M22.734,12.045c-2.126-2.116-4.704-3.18-7.732-3.189
	c-2.914,0.01-5.411,1.016-7.489,3.019c-0.076,0.058-0.143,0.114-0.2,0.171c-2.136,2.127-3.204,4.699-3.204,7.718
	c0,3.009,1.068,5.572,3.204,7.688c0.057,0.058,0.124,0.124,0.2,0.2c2.079,2.003,4.575,3.004,7.489,3.004
	c3.019,0,5.596-1.068,7.732-3.204c2.107-2.116,3.166-4.68,3.175-7.688C25.9,16.745,24.841,14.172,22.734,12.045z M21.694,14.509
	c1.13,1.433,1.732,3.047,1.809,4.841c-1.244-0.256-2.397-0.385-3.46-0.385h-0.014c-0.798,0-1.624,0.071-2.478,0.214
	c-0.142-0.37-0.332-0.807-0.569-1.31C18.899,17.025,20.47,15.904,21.694,14.509z M15.002,11.249c0.987,0,1.941,0.161,2.862,0.483
	c0.892,0.333,1.713,0.798,2.463,1.396c-1.054,1.234-2.449,2.227-4.187,2.977c-0.93-1.775-1.908-3.332-2.933-4.671
	C13.806,11.31,14.404,11.249,15.002,11.249z M7.513,15.762c0.247-0.484,0.546-0.94,0.897-1.367c0.797-0.959,1.742-1.709,2.833-2.25
	c1.044,1.215,2.06,2.753,3.047,4.613c-2.079,0.627-4.314,0.94-6.707,0.94l-0.826-0.015C6.929,17,7.18,16.36,7.513,15.762z
	 M7.513,23.721c-0.181-0.322-0.337-0.659-0.47-1.011c-0.351-0.958-0.527-1.941-0.527-2.947v-0.128l0.926,0.014
	c0.028,0,0.052,0,0.071,0c2.838-0.019,5.387-0.389,7.646-1.11l0.499,1.125c-1.775,0.598-3.37,1.533-4.784,2.805
	c-0.921,0.836-1.704,1.752-2.35,2.748C8.125,24.742,7.788,24.244,7.513,23.721z M15.002,28.264c-1.86,0-3.541-0.561-5.041-1.681
	c0.532-0.864,1.187-1.671,1.965-2.421c1.3-1.243,2.772-2.136,4.414-2.677c0.721,1.937,1.286,4.011,1.694,6.223
	C17.039,28.079,16.027,28.264,15.002,28.264z M22.136,24.405c-0.626,0.931-1.391,1.714-2.292,2.35
	c-0.408-1.965-0.935-3.878-1.58-5.738c0.617-0.076,1.191-0.114,1.723-0.114h0.043c1.072,0,2.183,0.133,3.332,0.399
	C23.161,22.421,22.753,23.456,22.136,24.405z"/>
</svg>
