<?xml version="1.0" encoding="utf-8"?>
<!-- Generator: Adobe Illustrator 16.0.0, SVG Export Plug-In . SVG Version: 6.00 Build 0)  -->
<!DOCTYPE svg PUBLIC "-//W3C//DTD SVG 1.1//EN" "http://www.w3.org/Graphics/SVG/1.1/DTD/svg11.dtd">
<svg version="1.1" id="Layer_1" xmlns="http://www.w3.org/2000/svg" xmlns:xlink="http://www.w3.org/1999/xlink" x="0px" y="0px"
	 width="36px" height="36px" viewBox="0 0 36 36" enable-background="new 0 0 36 36" xml:space="preserve">
<path d="M7,15.486l0.968,1.271c0,0,1.996-1.574,2.661-0.787s3.206,10.287,4.054,12.039c0.74,1.537,2.782,3.568,5.021,2.117
	c2.237-1.451,9.678-7.803,11.01-15.307c1.331-7.5-8.954-5.928-10.044,0.605c2.724-1.635,4.177,0.664,2.784,3.268
	c-1.391,2.6-2.662,4.297-3.328,4.297c-0.664,0-1.175-1.74-1.936-4.783c-0.787-3.145-0.782-8.809-4.053-8.166
	C11.053,10.646,7,15.486,7,15.486z"/>
</svg>
